<svg width="41" height="40" viewBox="0 0 41 40" fill="none" xmlns="http://www.w3.org/2000/svg">
<path d="M9.6357 21.7432L0.333374 38.4874H18.938L9.6357 21.7432ZM35.2171 2.99902C33.245 2.99902 31.8497 4.04088 31.031 5.17577C30.2124 4.04088 28.8171 2.99902 26.845 2.99902C23.9427 2.99902 21.7287 5.38042 21.7287 8.1153C21.7287 11.8362 26.231 14.4781 31.031 18.813C35.8311 14.4781 40.3334 11.8362 40.3334 8.1153C40.3334 5.38042 38.1194 2.99902 35.2171 2.99902Z" fill="#DFDFDF"/>
<path d="M16.901 7.4825V4.34908H12.6727V1.99902H7.5987V4.34908H3.37037V7.4825H0.833374V12.1826H3.37037V16.8827H16.901V12.1826H19.438V7.4825H16.901ZM6.3302 9.44088C6.3302 8.7907 6.8968 8.26585 7.5987 8.26585C8.3006 8.26585 8.8672 8.7907 8.8672 9.44088C8.8672 10.0911 8.3006 10.6159 7.5987 10.6159C6.8968 10.6159 6.3302 10.0911 6.3302 9.44088ZM13.5184 13.7493H6.75304V12.1826H13.5184V13.7493ZM12.6727 10.6159C11.9708 10.6159 11.4042 10.0911 11.4042 9.44088C11.4042 8.7907 11.9708 8.26585 12.6727 8.26585C13.3746 8.26585 13.9412 8.7907 13.9412 9.44088C13.9412 10.0911 13.3746 10.6159 12.6727 10.6159Z" fill="#DFDFDF"/>
<g clip-path="url(#clip0_1_1636)">
<path d="M20.7287 35.4966L23.7276 38.4875L26.7185 35.4966L29.7094 38.4875L32.7084 35.4966L29.7094 32.5057L39.2288 22.9782L39.3333 19.8828L36.2379 19.9873L26.7185 29.5067L23.7196 26.5158L20.7287 29.5067L23.7276 32.5057L20.7287 35.4966Z" fill="#DFDFDF"/>
</g>
<defs>
<clipPath id="clip0_1_1636">
<rect width="18.6047" height="18.6047" fill="white" transform="translate(20.7287 19.8828)"/>
</clipPath>
</defs>
</svg>
