<svg width="41" height="40" viewBox="0 0 41 40" fill="none" xmlns="http://www.w3.org/2000/svg">
<path fill-rule="evenodd" clip-rule="evenodd" d="M20.9997 36.6657C30.2044 36.6657 37.6663 29.2038 37.6663 19.999C37.6663 10.7943 30.2044 3.33235 20.9997 3.33235C11.7949 3.33235 4.33301 10.7943 4.33301 19.999C4.33301 29.2038 11.7949 36.6657 20.9997 36.6657ZM22.6663 11.7348V8.33235H19.333V11.6657C16.5716 11.6657 14.333 13.9043 14.333 16.6657C14.333 19.4271 16.5716 21.6657 19.333 21.6657H22.6663C23.5868 21.6657 24.333 22.4119 24.333 23.3324C24.333 24.2528 23.5868 24.999 22.6663 24.999H19.333C18.4125 24.999 17.6663 24.2528 17.6663 23.3324H14.333C14.333 26.0938 16.5716 28.3324 19.333 28.3324V31.6657H22.6663V28.3324C25.4278 28.3324 27.6663 26.0938 27.6663 23.3324C27.6663 20.5709 25.4278 18.3324 22.6663 18.3324H19.333C18.4125 18.3324 17.6663 17.5862 17.6663 16.6657C17.6663 15.7452 18.4125 14.999 19.333 14.999H21.833C22.7535 14.999 23.4997 15.7452 23.4997 16.6657H26.833C26.833 14.1882 25.0311 12.1315 22.6663 11.7348Z" fill="#DFDFDF"/>
</svg>
