<svg width="40" height="40" viewBox="0 0 40 40" fill="none" xmlns="http://www.w3.org/2000/svg">
<path d="M27.8866 22.3752L23.6012 26.7194L35.7146 38.999L40 34.6548L27.8866 22.3752Z" fill="#DFDFDF"/>
<path d="M31.1108 16.1279C35.0097 16.1279 38.1814 12.9127 38.1814 8.96024C38.1814 7.77246 37.8582 6.66659 37.3532 5.6836L31.8987 11.2129L28.8886 8.16156L34.3431 2.63223C33.3734 2.12025 32.2825 1.79259 31.1108 1.79259C27.2118 1.79259 24.0402 5.00779 24.0402 8.96024C24.0402 9.79988 24.2018 10.5986 24.4644 11.3358L20.7271 15.1244L17.1311 11.4792L18.5655 10.0252L15.717 7.13761L19.9998 2.79606C17.6362 0.400012 13.7978 0.400012 11.4342 2.79606L4.28278 10.0456L7.13124 12.9332H1.43433L0 14.3872L7.15144 21.6368L8.58577 20.1827V14.3872L11.4342 17.2747L12.8686 15.8207L16.4645 19.466L1.49493 34.6409L5.77772 38.9825L28.7674 15.6978C29.4947 15.9641 30.2825 16.1279 31.1108 16.1279Z" fill="#DFDFDF"/>
</svg>
